# xmcd
#
# Track frame offsets:
#	150
#	30772
#	54657
#	88360
#	110912
#	123880
#	147577
#
# Disc length: 2163 seconds
#
# Revision: 1206078232
# Processed by: cddbd v1.5.2PL0 Copyright (c) Steve Scherf et al.
# Submitted via: EZCDAudioConverter 7.1.5.1
#
DISCID=61087107
DTITLE=Curtis Mayfield - Back To The World - Love [CD1] (UK)
DYEAR=1998
DGENRE=Soul, Funk
TTITLE0=Back To The World
TTITLE1=Future Shock
TTITLE2=Right On For The Darkness
TTITLE3=Future Song (Love A Good Woman, Love A Good Man)
TTITLE4=If I Were Only A Child Again
TTITLE5=Can't Say Nothin'
TTITLE6=Keep On Trippin'
EXTD=
EXTT0=
EXTT1=
EXTT2=
EXTT3=
EXTT4=
EXTT5=
EXTT6=
PLAYORDER=
